<svg viewBox="0 0 64 64" xmlns="http://www.w3.org/2000/svg"><path d="m0 0h64v64h-64z" fill="#000842"/><path d="m43.51 16.51a10.44 10.44 0 0 0 -7.88 3.57l-14.06 14-4-4a4.24 4.24 0 0 1 3.17-7 4.13 4.13 0 0 1 2.8 1.05c.25.22 1 1 1 1l4.46-4.52-1.29-1.29a10.35 10.35 0 0 0 -7.17-2.81 10.5 10.5 0 0 0 -7.96 17.39l9 9.07 18.89-18.86a4 4 0 0 1 2.8-1.06 4.22 4.22 0 0 1 4.23 4.22 4.14 4.14 0 0 1 -1.06 2.8l-12.53 12.57a2.67 2.67 0 0 1 -1.92.79 2.63 2.63 0 0 1 -1.88-.82l-.94-.93-4.43 4.43.91.89a8.91 8.91 0 0 0 6.35 2.68 8.78 8.78 0 0 0 6.35-2.68l13.07-13.09a10.51 10.51 0 0 0 -7.91-17.4z" fill="#fff"/></svg>